<svg width="34" height="34" viewBox="0 0 34 34" fill="none" xmlns="http://www.w3.org/2000/svg">
<rect x="0.969238" y="0.767975" width="32.5854" height="32.5854" rx="8.14634" fill="url(#paint0_linear_1_204)"/>
<g clip-path="url(#clip0_1_204)">
<g filter="url(#filter0_d_1_204)">
<path d="M20.9856 12.6012C21.1715 12.4135 21.4243 12.307 21.6885 12.3051C21.9528 12.3031 22.2071 12.4059 22.3958 12.5908C22.5846 12.7758 22.6924 13.028 22.6958 13.2922C22.6992 13.5565 22.5978 13.8113 22.4139 14.001L17.0916 20.6546C17.0002 20.753 16.8898 20.832 16.7672 20.8869C16.6446 20.9417 16.5121 20.9713 16.3778 20.9738C16.2434 20.9764 16.11 20.9518 15.9854 20.9016C15.8607 20.8514 15.7475 20.7766 15.6524 20.6817L12.1237 17.1544C11.9362 16.9667 11.8309 16.7123 11.8309 16.4471C11.831 16.1818 11.9364 15.9275 12.124 15.7399C12.3116 15.5524 12.5661 15.4471 12.8313 15.4472C13.0966 15.4472 13.3509 15.5527 13.5384 15.7403L16.3292 18.5318L20.9591 12.6325C20.9675 12.6217 20.9766 12.6115 20.9862 12.6019L20.9856 12.6012Z" fill="white"/>
</g>
</g>
<defs>
<filter id="filter0_d_1_204" x="11.8309" y="12.3051" width="10.865" height="10.7055" filterUnits="userSpaceOnUse" color-interpolation-filters="sRGB">
<feFlood flood-opacity="0" result="BackgroundImageFix"/>
<feColorMatrix in="SourceAlpha" type="matrix" values="0 0 0 0 0 0 0 0 0 0 0 0 0 0 0 0 0 0 127 0" result="hardAlpha"/>
<feOffset dy="2.03658"/>
<feColorMatrix type="matrix" values="0 0 0 0 0 0 0 0 0 0 0 0 0 0 0 0 0 0 0.1 0"/>
<feBlend mode="normal" in2="BackgroundImageFix" result="effect1_dropShadow_1_204"/>
<feBlend mode="normal" in="SourceGraphic" in2="effect1_dropShadow_1_204" result="shape"/>
</filter>
<linearGradient id="paint0_linear_1_204" x1="17.2619" y1="0.767975" x2="17.2619" y2="33.3533" gradientUnits="userSpaceOnUse">
<stop stop-color="#89F09C"/>
<stop offset="1" stop-color="#3CC755"/>
</linearGradient>
<clipPath id="clip0_1_204">
<rect width="10.8618" height="10.8618" fill="white" transform="translate(11.8311 11.6298)"/>
</clipPath>
</defs>
</svg>
