<svg width="21" height="21" viewBox="0 0 21 21" fill="none" xmlns="http://www.w3.org/2000/svg">
<path d="M8.23806 19.0571C8.69819 19.0571 9.0712 18.6841 9.0712 18.224C9.0712 17.7638 8.69819 17.3908 8.23806 17.3908C7.77792 17.3908 7.40491 17.7638 7.40491 18.224C7.40491 18.6841 7.77792 19.0571 8.23806 19.0571Z" stroke="#9B9B9B" stroke-width="2.03658" stroke-linecap="round" stroke-linejoin="round"/>
<path d="M17.4026 19.0571C17.8627 19.0571 18.2358 18.6841 18.2358 18.224C18.2358 17.7638 17.8627 17.3908 17.4026 17.3908C16.9425 17.3908 16.5695 17.7638 16.5695 18.224C16.5695 18.6841 16.9425 19.0571 17.4026 19.0571Z" stroke="#9B9B9B" stroke-width="2.03658" stroke-linecap="round" stroke-linejoin="round"/>
<path d="M1.57275 1.56097H4.90535L7.13818 12.7168C7.21437 13.1004 7.42304 13.445 7.72767 13.6902C8.0323 13.9354 8.41348 14.0657 8.80448 14.0582H16.9027C17.2937 14.0657 17.6749 13.9354 17.9795 13.6902C18.2841 13.445 18.4928 13.1004 18.569 12.7168L19.902 5.72672H5.7385" stroke="#9B9B9B" stroke-width="2.03658" stroke-linecap="round" stroke-linejoin="round"/>
</svg>
