<svg width="16" height="14" viewBox="0 0 16 14" fill="none" xmlns="http://www.w3.org/2000/svg">
<path d="M15.1993 3.34275C14.9718 2.82005 14.6437 2.34638 14.2335 1.94827C13.8229 1.54896 13.3389 1.23164 12.8077 1.01356C12.2569 0.786521 11.6661 0.670311 11.0696 0.671673C10.2328 0.671673 9.41641 0.899035 8.70691 1.3285C8.53718 1.43123 8.37593 1.54407 8.22317 1.66701C8.07041 1.54407 7.90916 1.43123 7.73943 1.3285C7.02993 0.899035 6.21351 0.671673 5.37672 0.671673C4.77416 0.671673 4.19027 0.786196 3.63863 1.01356C3.10566 1.2325 2.62531 1.54744 2.21286 1.94827C1.8021 2.34593 1.47397 2.81971 1.24707 3.34275C1.01114 3.88673 0.890625 4.4644 0.890625 5.05891C0.890625 5.61973 1.00604 6.20414 1.23519 6.79864C1.42699 7.29547 1.70196 7.81082 2.05331 8.33123C2.61004 9.15478 3.37554 10.0137 4.32606 10.8844C5.9012 12.3277 7.46106 13.3248 7.52726 13.3652L7.92953 13.6212C8.10775 13.734 8.33689 13.734 8.51511 13.6212L8.91739 13.3652C8.98358 13.3231 10.5417 12.3277 12.1186 10.8844C13.0691 10.0137 13.8346 9.15478 14.3913 8.33123C14.7427 7.81082 15.0194 7.29547 15.2095 6.79864C15.4386 6.20414 15.554 5.61973 15.554 5.05891C15.5557 4.4644 15.4352 3.88673 15.1993 3.34275Z" fill="#FF8585"/>
</svg>
