<svg width="16" height="14" viewBox="0 0 16 14" fill="none" xmlns="http://www.w3.org/2000/svg">
<path d="M13.4199 2.27687L13.4193 2.27631C13.0742 1.94065 12.6671 1.67364 12.2199 1.49003L12.2189 1.48966C11.7549 1.29838 11.2569 1.20041 10.7541 1.20155L10.7525 1.20156C10.0449 1.20156 9.3563 1.39375 8.75889 1.75537L8.75887 1.75538C8.61593 1.84189 8.48071 1.93656 8.35294 2.03939L7.90603 2.39907L7.45912 2.03939C7.33135 1.93656 7.19613 1.84189 7.05319 1.75538L7.05317 1.75537C6.45576 1.39375 5.76712 1.20156 5.05958 1.20156C4.54886 1.20156 4.05736 1.29832 3.59311 1.48966L3.59235 1.48998C3.14331 1.67444 2.73968 1.93913 2.39249 2.27653L2.39152 2.27747L2.39152 2.27747C2.04776 2.61027 1.77345 3.00646 1.58388 3.44345L13.4199 2.27687ZM13.4199 2.27687C13.7636 2.6104 14.0381 3.00692 14.2285 3.44409C14.4255 3.89874 14.5255 4.37901 14.5241 4.87395V4.87599C14.5241 5.33843 14.4289 5.83601 14.2272 6.35937L14.2266 6.36099M13.4199 2.27687L14.2266 6.36099M4.4904 10.1759L4.49048 10.176C5.25329 10.8749 6.0152 11.4682 6.59582 11.8924C6.88559 12.104 7.12879 12.2725 7.30253 12.3899C7.38938 12.4486 7.45867 12.4943 7.50751 12.5262C7.55114 12.5546 7.57497 12.5697 7.58043 12.5732C7.58142 12.5738 7.58181 12.574 7.5816 12.5739L7.59287 12.5808L7.59281 12.5809L7.90518 12.7797L8.21756 12.5809L8.21769 12.5808C8.26983 12.5476 9.78792 11.5782 11.32 10.1759H4.4904ZM4.4904 10.1759C3.56939 9.3322 2.84453 8.51503 2.32694 7.74945L4.4904 10.1759ZM14.2266 6.36099C14.0596 6.79749 13.8107 7.26469 13.4834 7.74945M14.2266 6.36099L13.4834 7.74945M13.4834 7.74945C12.9659 8.51498 12.2411 9.33208 11.3202 10.1757L13.4834 7.74945ZM1.28629 4.87599C1.28629 4.37945 1.38661 3.89831 1.58385 3.4435L1.58302 6.35901C1.3814 5.83578 1.28629 5.33832 1.28629 4.87599ZM2.3267 7.7491C2.00046 7.26585 1.75258 6.79813 1.58316 6.35937L2.3267 7.7491Z" stroke="#ECECEC" stroke-width="1.42561"/>
</svg>
