<svg width="22" height="21" viewBox="0 0 22 21" fill="none" xmlns="http://www.w3.org/2000/svg">
<path fill-rule="evenodd" clip-rule="evenodd" d="M0.792236 10.7439C0.792236 5.22373 5.455 0.560974 10.9752 0.560974C16.4953 0.560974 21.1581 5.22373 21.1581 10.7439C21.1581 13.9922 19.537 16.9331 17.0849 18.8128V18.8902H16.981C15.2825 20.158 13.2022 20.9268 10.9752 20.9268C8.74815 20.9268 6.66778 20.158 4.96927 18.8902H4.86541V18.8128C2.41336 16.9331 0.792236 13.9912 0.792236 10.7439ZM8.04601 16.0757C7.50435 16.5114 7.1274 17.1188 6.97734 17.7976C8.16671 18.487 9.53326 18.8902 10.9752 18.8902C12.4171 18.8902 13.7836 18.487 14.973 17.7976C14.8227 17.1189 14.4458 16.5116 13.9041 16.0759C13.3625 15.6401 12.6886 15.4019 11.9935 15.4005H9.95687C9.26168 15.4018 8.58767 15.6399 8.04601 16.0757ZM14.8118 14.218C15.6468 14.7737 16.2994 15.5633 16.6878 16.4881C18.1816 15.0024 19.1215 12.9597 19.1215 10.7439C19.1215 6.32756 15.3915 2.59756 10.9752 2.59756C6.55883 2.59756 2.82882 6.32756 2.82882 10.7439C2.82882 12.9597 3.7687 15.0024 5.26254 16.4881C5.65096 15.5633 6.30351 14.7737 7.13851 14.218C7.97351 13.6623 8.95386 13.3652 9.95687 13.364H11.9935C12.9965 13.3652 13.9768 13.6623 14.8118 14.218ZM6.90206 8.70732C6.90206 6.38561 8.65352 4.63415 10.9752 4.63415C13.2969 4.63415 15.0484 6.38561 15.0484 8.70732C15.0484 11.029 13.2969 12.7805 10.9752 12.7805C8.65352 12.7805 6.90206 11.029 6.90206 8.70732ZM8.93864 8.70732C8.93864 9.90686 9.77568 10.7439 10.9752 10.7439C12.1748 10.7439 13.0118 9.90686 13.0118 8.70732C13.0118 7.50777 12.1748 6.67073 10.9752 6.67073C9.77568 6.67073 8.93864 7.50777 8.93864 8.70732Z" fill="#9B9B9B"/>
</svg>
